<?xml version="1.0" encoding="UTF-8"?>
<svg version="1.1" xmlns="http://www.w3.org/2000/svg" width="500" height="500">
<path d="M0 0 C0.89847656 0.55816406 1.79695312 1.11632812 2.72265625 1.69140625 C28.18002054 18.8549686 44.55596587 45.32234802 51 75 C56.43996653 103.51651242 49.89942253 133.92127166 34 158 C16.33488166 183.50738234 -8.21739933 199.8904065 -38 208 C-39.05574219 208.28810547 -39.05574219 208.28810547 -40.1328125 208.58203125 C-71.1860934 216.55846223 -105.97209241 210.18418063 -133.32470703 194.02783203 C-141.65105465 188.91941998 -148.90616703 182.67724881 -156 176 C-156.66515625 175.41089844 -157.3303125 174.82179687 -158.015625 174.21484375 C-164.93390388 167.81684194 -169.83963593 159.81643381 -175 152 C-173 151 -173 151 -170.7578125 151.24609375 C-166.79634313 150.89259153 -164.69444295 148.64108815 -161.875 146.0625 C-160.71560783 145.04079896 -159.55544022 144.01997724 -158.39453125 143 C-157.82041504 142.48953125 -157.24629883 141.9790625 -156.65478516 141.453125 C-154.34333988 139.42336367 -151.95741453 137.49262371 -149.5625 135.5625 C-144.69870975 131.60491812 -139.94118769 127.53457554 -135.19165039 123.44165039 C-130.8019965 119.66665609 -126.33885229 115.99271539 -121.84375 112.34375 C-118.52312328 109.60696974 -115.25987065 106.80859209 -112 104 C-107.62856823 100.24101127 -103.24692792 96.49711712 -98.8125 92.8125 C-97.95269531 92.09707031 -97.09289062 91.38164062 -96.20703125 90.64453125 C-94 89 -94 89 -91 88 C-90.86852336 95.51151632 -91.25155631 102.8413829 -92 110.3125 C-93.35231884 123.14426394 -93.35231884 123.14426394 -93 136 C-92.34 136.66 -91.68 137.32 -91 138 C-87.40320934 137.67673447 -87.40320934 137.67673447 -84 137 C-82.13184294 131.27137606 -81.4306718 125.773187 -80.9296875 119.78125 C-80.84373322 118.80571167 -80.75777893 117.83017334 -80.66921997 116.82507324 C-80.48947873 114.7645336 -80.3131851 112.70369064 -80.14013672 110.64257812 C-79.87810534 107.53680662 -79.60199626 104.43252305 -79.32421875 101.328125 C-77.67353003 85.18202065 -77.67353003 85.18202065 -78 69 C-80.905571 66.094429 -84.14720272 66.35359799 -88.06640625 66 C-88.88469406 65.91915161 -89.70298187 65.83830322 -90.54606628 65.75500488 C-93.21739008 65.49377784 -95.88973372 65.2459988 -98.5625 65 C-100.38902513 64.82776778 -102.21552251 64.65524107 -104.04199219 64.48242188 C-107.67416832 64.14048441 -111.30686971 63.80492949 -114.93994141 63.47265625 C-119.32220512 63.06881972 -123.69787852 62.61969999 -128.07421875 62.15625 C-130.29937726 61.93646584 -132.52462914 61.71762355 -134.75 61.5 C-136.25348999 61.32984375 -136.25348999 61.32984375 -137.78735352 61.15625 C-143.02484111 60.59690939 -143.02484111 60.59690939 -147.65625 62.765625 C-149.31331579 65.03228733 -149.31331579 65.03228733 -148.75 68.25 C-148.5025 69.1575 -148.255 70.065 -148 71 C-139.38285279 73.26973889 -130.66092785 73.85511169 -121.8125 74.5625 C-119.50931484 74.75066793 -117.2063034 74.94064264 -114.90348816 75.13328552 C-113.48015245 75.25195039 -112.05658634 75.3678958 -110.63276672 75.48060608 C-106.71224408 75.80288774 -102.87035149 76.29722071 -99 77 C-106.17213413 84.41120527 -114.00622426 91.06859675 -122.015625 97.55078125 C-125.38761487 100.31810802 -128.69662321 103.15150415 -132 106 C-137.01576522 110.32190074 -142.09175888 114.55479675 -147.23046875 118.73046875 C-151.40793158 122.15374929 -155.52252353 125.64959238 -159.63671875 129.1484375 C-161.96196177 131.12506529 -164.29906163 133.08648247 -166.64453125 135.0390625 C-167.23766113 135.53486816 -167.83079102 136.03067383 -168.44189453 136.54150391 C-169.57966065 137.49213535 -170.7198505 138.43987574 -171.86279297 139.38427734 C-174.36286498 141.47931414 -176.17425575 143.26138363 -178 146 C-191.55623088 119.29134087 -193.28106595 88.95910581 -184.546875 60.4296875 C-174.5442843 30.32954318 -152.07830834 6.88592519 -124.34838867 -7.56396484 C-84.6897913 -27.26757223 -37.09940272 -23.20382811 0 0 Z " fill="#001C7F" transform="translate(217,39)"/>
<path d="M0 0 C0.66 0 1.32 0 2 0 C2.13147664 7.51151632 1.74844369 14.8413829 1 22.3125 C-0.35231884 35.14426394 -0.35231884 35.14426394 0 48 C0.66 48.66 1.32 49.32 2 50 C5.59679066 49.67673447 5.59679066 49.67673447 9 49 C11.13391403 42.74051886 11.58955515 36.57791873 12 30 C12.33 30 12.66 30 13 30 C13.0816082 32.37570543 13.14077222 34.74855841 13.1875 37.125 C13.21263672 37.79015625 13.23777344 38.4553125 13.26367188 39.140625 C13.33307677 43.86015793 12.65885192 47.08169191 10 51 C7.73828125 52.2421875 7.73828125 52.2421875 5.3125 52.875 C4.50425781 53.09929687 3.69601563 53.32359375 2.86328125 53.5546875 C2.24839844 53.70164063 1.63351563 53.84859375 1 54 C1 54.66 1 55.32 1 56 C0.01 56.495 0.01 56.495 -1 57 C-0.99476318 57.65597168 -0.98952637 58.31194336 -0.98413086 58.98779297 C-0.96338728 61.95018563 -0.95034824 64.91256303 -0.9375 67.875 C-0.92493164 69.42380859 -0.92493164 69.42380859 -0.91210938 71.00390625 C-0.90888672 71.99003906 -0.90566406 72.97617188 -0.90234375 73.9921875 C-0.89710693 74.90339355 -0.89187012 75.81459961 -0.88647461 76.75341797 C-1 79 -1 79 -2 81 C-2.20560807 83.33022478 -2.36599952 85.66456298 -2.5 88 C-2.88888889 94.77777778 -2.88888889 94.77777778 -4 97 C-5.99954746 97.04254356 -8.00041636 97.04080783 -10 97 C-11.90317376 95.09682624 -11.1325494 92.33534893 -11.13671875 89.80664062 C-11.13285156 88.98357422 -11.12898438 88.16050781 -11.125 87.3125 C-11.12886719 86.50876953 -11.13273437 85.70503906 -11.13671875 84.87695312 C-11.1295153 80.47204428 -10.88264558 76.33617154 -10 72 C-17.62161164 78.13214908 -25.04864573 84.46007281 -32.421875 90.88671875 C-33.01419922 91.39638184 -33.60652344 91.90604492 -34.21679688 92.43115234 C-35.43532069 93.50319972 -36.62871814 94.6043135 -37.79882812 95.72900391 C-40.63759099 98.38625422 -42.25332972 99.86289429 -46.1484375 100.578125 C-51.5674311 99.47947972 -55.00224764 95.63124474 -59 92 C-59.96550781 91.12859375 -60.93101563 90.2571875 -61.92578125 89.359375 C-69.98697589 81.81495724 -76.03557441 73.25190426 -82 64 C-80 63 -80 63 -77.7578125 63.24609375 C-73.79634313 62.89259153 -71.69444295 60.64108815 -68.875 58.0625 C-67.71560783 57.04079896 -66.55544022 56.01997724 -65.39453125 55 C-64.82041504 54.48953125 -64.24629883 53.9790625 -63.65478516 53.453125 C-61.34333988 51.42336367 -58.95741453 49.49262371 -56.5625 47.5625 C-51.69870975 43.60491812 -46.94118769 39.53457554 -42.19165039 35.44165039 C-37.8019965 31.66665609 -33.33885229 27.99271539 -28.84375 24.34375 C-24.91886039 21.10895087 -21.07218322 17.78626684 -17.2199707 14.46557617 C-12.54634834 10.44565255 -7.80171113 6.52547398 -3.01171875 2.64453125 C-1.12373351 1.15704175 -1.12373351 1.15704175 0 0 Z " fill="#031B7F" transform="translate(124,127)"/>
<path d="M0 0 C1.18033813 0.00108765 1.18033813 0.00108765 2.38452148 0.00219727 C3.18494873 0.00227783 3.98537598 0.0023584 4.81005859 0.00244141 C26.33602205 0.20369783 26.33602205 0.20369783 29.32202148 3.18969727 C29.8327384 10.82040882 29.24845181 18.61857206 28.94702148 26.25219727 C28.91624512 27.18064453 28.88546875 28.1090918 28.85375977 29.06567383 C28.81492676 29.94320312 28.77609375 30.82073242 28.73608398 31.72485352 C28.70466309 32.51255127 28.67324219 33.30024902 28.64086914 34.11181641 C28.32202148 36.18969727 28.32202148 36.18969727 26.32202148 39.18969727 C24.67202148 38.85969727 23.02202148 38.52969727 21.32202148 38.18969727 C21.29489824 35.31463306 21.27512297 32.43982819 21.25952148 29.56469727 C21.25114258 28.75645508 21.24276367 27.94821289 21.23413086 27.11547852 C21.21612598 22.68627809 21.42579486 18.55086303 22.32202148 14.18969727 C14.70040984 20.32184634 7.27337576 26.64977007 -0.09985352 33.07641602 C-0.68871338 33.58672363 -1.27757324 34.09703125 -1.88427734 34.62280273 C-3.12282824 35.70474361 -4.35127992 36.79831659 -5.57128906 37.90112305 C-6.18270752 38.44623535 -6.79412598 38.99134766 -7.42407227 39.55297852 C-7.96990967 40.04709229 -8.51574707 40.54120605 -9.078125 41.05029297 C-10.67797852 42.18969727 -10.67797852 42.18969727 -13.99047852 42.68969727 C-16.67797852 42.18969727 -16.67797852 42.18969727 -18.67797852 40.18969727 C-18.01797852 40.18969727 -17.35797852 40.18969727 -16.67797852 40.18969727 C-16.54842773 39.3118457 -16.54842773 39.3118457 -16.41625977 38.41625977 C-15.47392091 35.57428543 -14.14255012 34.48267595 -11.86547852 32.56469727 C-11.1784082 31.97430664 -10.49133789 31.38391602 -9.78344727 30.77563477 C-7.81192428 29.29059148 -5.91973859 28.20730521 -3.67797852 27.18969727 C-3.67797852 26.52969727 -3.67797852 25.86969727 -3.67797852 25.18969727 C-1.17797852 23.68969727 -1.17797852 23.68969727 1.32202148 22.18969727 C2.20889648 21.30282227 3.09577148 20.41594727 4.00952148 19.50219727 C4.77264648 18.73907227 5.53577148 17.97594727 6.32202148 17.18969727 C6.98202148 17.18969727 7.64202148 17.18969727 8.32202148 17.18969727 C8.32202148 16.52969727 8.32202148 15.86969727 8.32202148 15.18969727 C8.98202148 15.18969727 9.64202148 15.18969727 10.32202148 15.18969727 C10.32202148 14.52969727 10.32202148 13.86969727 10.32202148 13.18969727 C12.30277176 11.82793145 14.30281812 10.49376611 16.32202148 9.18969727 C16.32202148 8.85969727 16.32202148 8.52969727 16.32202148 8.18969727 C9.06202148 7.52969727 1.80202148 6.86969727 -5.67797852 6.18969727 C-6.00797852 4.53969727 -6.33797852 2.88969727 -6.67797852 1.18969727 C-4.87142028 -0.61686097 -2.40587467 0.02370451 0 0 Z " fill="#DF0B89" transform="translate(91.677978515625,184.810302734375)"/>
<path d="M0 0 C1.18033813 0.00108765 1.18033813 0.00108765 2.38452148 0.00219727 C3.18494873 0.00227783 3.98537598 0.0023584 4.81005859 0.00244141 C26.33602205 0.20369783 26.33602205 0.20369783 29.32202148 3.18969727 C29.83456584 10.84771287 29.22193158 18.65718176 28.88452148 26.31469727 C28.82578857 27.71993652 28.82578857 27.71993652 28.76586914 29.15356445 C28.72381348 30.03431641 28.68175781 30.91506836 28.63842773 31.82250977 C28.60177002 32.61544434 28.5651123 33.40837891 28.52734375 34.2253418 C28.32202148 36.18969727 28.32202148 36.18969727 27.32202148 38.18969727 C25.67202148 37.85969727 24.02202148 37.52969727 22.32202148 37.18969727 C22.32202148 27.94969727 22.32202148 18.70969727 22.32202148 9.18969727 C21.33202148 9.18969727 20.34202148 9.18969727 19.32202148 9.18969727 C19.32202148 8.52969727 19.32202148 7.86969727 19.32202148 7.18969727 C11.07202148 6.85969727 2.82202148 6.52969727 -5.67797852 6.18969727 C-6.00797852 4.53969727 -6.33797852 2.88969727 -6.67797852 1.18969727 C-4.87142028 -0.61686097 -2.40587467 0.02370451 0 0 Z " fill="#EA0888" transform="translate(91.677978515625,184.810302734375)"/>
<path d="M0 0 C0.13147664 7.51151632 -0.25155631 14.8413829 -1 22.3125 C-2.35231884 35.14426394 -2.35231884 35.14426394 -2 48 C-1.34 48.66 -0.68 49.32 0 50 C3.59679066 49.67673447 3.59679066 49.67673447 7 49 C9.13391403 42.74051886 9.58955515 36.57791873 10 30 C10.33 30 10.66 30 11 30 C11.0816082 32.37570543 11.14077222 34.74855841 11.1875 37.125 C11.21263672 37.79015625 11.23777344 38.4553125 11.26367188 39.140625 C11.33325581 43.8723325 10.43536103 46.96355779 8 51 C6.12735324 52.87264676 3.50240053 52.23607378 1.0078125 52.328125 C-1 52 -1 52 -2.61157227 50.94458008 C-4.71387291 48.00017624 -4.3306498 45.03335678 -4.22265625 41.55859375 C-4.21366806 40.83511246 -4.20467987 40.11163116 -4.19541931 39.3662262 C-4.16540028 37.05616243 -4.11559794 34.74714033 -4.0625 32.4375 C-4.01472477 30.12436258 -3.97139856 27.8114862 -3.94029236 25.49806213 C-3.92048315 24.05887052 -3.89079583 22.61977476 -3.85035706 21.18101501 C-3.82425468 19.45348699 -3.90353063 17.72502987 -4 16 C-4.66 15.34 -5.32 14.68 -6 14 C-7.65 14.66 -9.3 15.32 -11 16 C-11.433125 15.505 -11.86625 15.01 -12.3125 14.5 C-13.99740483 12.66781808 -13.99740483 12.66781808 -17 13 C-14.54862627 10.82535122 -12.08780163 8.66169267 -9.625 6.5 C-8.92632812 5.87996094 -8.22765625 5.25992188 -7.5078125 4.62109375 C-6.8375 4.03457031 -6.1671875 3.44804687 -5.4765625 2.84375 C-4.549646 2.02680664 -4.549646 2.02680664 -3.60400391 1.19335938 C-2 0 -2 0 0 0 Z " fill="#081E71" transform="translate(126,127)"/>
<path d="M0 0 C1.65 0.33 3.3 0.66 5 1 C4.88148693 5.19940207 4.75722118 9.3985831 4.62768555 13.59765625 C4.58444682 15.02534388 4.54276415 16.45307954 4.50268555 17.88085938 C4.44471398 19.93634496 4.38109825 21.99159128 4.31640625 24.046875 C4.26141968 25.90070801 4.26141968 25.90070801 4.20532227 27.79199219 C4.04020181 30.37187658 3.7535613 32.54355106 3 35 C1.68 34.67 0.36 34.34 -1 34 C-1 24.76 -1 15.52 -1 6 C-1.99 5.67 -2.98 5.34 -4 5 C-3.34 4.67 -2.68 4.34 -2 4 C-0.86649466 1.98330173 -0.86649466 1.98330173 0 0 Z " fill="#F90383" transform="translate(115,188)"/>
<path d="M0 0 C0.33 0.66 0.66 1.32 1 2 C0.67 2.99 0.34 3.98 0 5 C-0.66 5 -1.32 5 -2 5 C-2 5.66 -2 6.32 -2 7 C-3.96147874 8.38938077 -5.96166576 9.7260411 -8 11 C-8.66 10.67 -9.32 10.34 -10 10 C-10.061875 10.78375 -10.12375 11.5675 -10.1875 12.375 C-11 15 -11 15 -13.3125 16.25 C-17.95454545 17.54545455 -17.95454545 17.54545455 -20 18 C-17.87258608 22.70270446 -15.37939175 26.16393369 -12 30 C-12.66 30.66 -13.32 31.32 -14 32 C-17.63 26.72 -21.26 21.44 -25 16 C-23 15 -23 15 -20.78125 15.265625 C-16.68571829 14.87447871 -14.42320381 12.41547355 -11.5 9.75 C-10.38586629 8.76511614 -9.27128944 7.78073333 -8.15625 6.796875 C-7.62644531 6.32314453 -7.09664062 5.84941406 -6.55078125 5.36132812 C-4.42737285 3.49732856 -2.22361521 1.74238505 0 0 Z " fill="#061E6F" transform="translate(67,175)"/>
<path d="M0 0 C2.37531394 -0.0543965 4.74935883 -0.09385864 7.125 -0.125 C7.79015625 -0.14175781 8.4553125 -0.15851563 9.140625 -0.17578125 C13.48353809 -0.21835883 17.15006884 -0.09061544 21 2 C23.96924418 8.07988094 23.05491612 14.71086194 22.6875 21.3125 C22.63916016 22.40884766 22.59082031 23.50519531 22.54101562 24.63476562 C22.14773261 32.70453477 22.14773261 32.70453477 21 35 C20.78308608 36.37206521 20.61076837 37.75139272 20.46484375 39.1328125 C20.37783203 39.93847656 20.29082031 40.74414062 20.20117188 41.57421875 C20.11416016 42.41597656 20.02714844 43.25773437 19.9375 44.125 C19.84662109 44.97449219 19.75574219 45.82398438 19.66210938 46.69921875 C19.4379632 48.7991145 19.21853552 50.89951293 19 53 C18.67 53 18.34 53 18 53 C17.86021061 45.86588736 18.29254953 38.9079884 19 31.8125 C20.35161791 18.42231385 20.35161791 18.42231385 20 5 C17.68600977 2.68600977 17.01395276 2.67743196 13.8671875 2.3671875 C12.65869141 2.24150391 12.65869141 2.24150391 11.42578125 2.11328125 C10.16314453 1.99533203 10.16314453 1.99533203 8.875 1.875 C7.60076172 1.74544922 7.60076172 1.74544922 6.30078125 1.61328125 C4.20130273 1.40097443 2.10073758 1.19946397 0 1 C0 0.67 0 0.34 0 0 Z " fill="#0D206A" transform="translate(119,103)"/>
<path d="M0 0 C0 7.92 0 15.84 0 24 C1.32 24.66 2.64 25.32 4 26 C1.625 26.125 1.625 26.125 -1 26 C-3 24 -3 24 -3.1953125 20.4453125 C-3.18200166 19.00507913 -3.15813076 17.56491378 -3.125 16.125 C-3.11597656 15.40441406 -3.10695313 14.68382812 -3.09765625 13.94140625 C-3.07212402 11.96083456 -3.0364491 9.98040086 -3 8 C-3 6.68 -3 5.36 -3 4 C-3.474375 4.70125 -3.94875 5.4025 -4.4375 6.125 C-7.29414856 9.33002034 -10.25967906 11.31211004 -13.87890625 13.5703125 C-16.02666027 14.91556744 -16.02666027 14.91556744 -17.65234375 16.6796875 C-19 18 -19 18 -21 18 C-21 18.66 -21 19.32 -21 20 C-21.99 19.67 -22.98 19.34 -24 19 C-23.0821875 18.21496094 -22.164375 17.42992187 -21.21875 16.62109375 C-20.62739258 16.11481445 -20.03603516 15.60853516 -19.42675781 15.08691406 C-18.1401064 13.98546741 -16.85299528 12.88455755 -15.56542969 11.78417969 C-11.474975 8.28311573 -7.42957656 4.74004816 -3.453125 1.109375 C-2 0 -2 0 0 0 Z " fill="#330B76" transform="translate(114,199)"/>
<path d="M0 0 C0.33 0 0.66 0 1 0 C1.3197513 14.32485846 1.54342801 28.03720629 -2 42 C-2.33 42 -2.66 42 -3 42 C-2.98839844 41.36191406 -2.97679687 40.72382813 -2.96484375 40.06640625 C-2.95582031 39.24011719 -2.94679688 38.41382813 -2.9375 37.5625 C-2.92589844 36.73878906 -2.91429687 35.91507813 -2.90234375 35.06640625 C-2.76732652 33.00836062 -2.76732652 33.00836062 -4 32 C-4.35902346 26.61464816 -4.35902346 26.61464816 -3.0234375 24.328125 C-1.49579502 20.8530299 -1.56841896 17.3016731 -1.4375 13.5625 C-1.06974916 4.44697376 -1.06974916 4.44697376 0 0 Z " fill="#081F6C" transform="translate(268,122)"/>
<path d="M0 0 C0.66 0 1.32 0 2 0 C1 3 1 3 -2.125 5.3125 C-3.548125 6.6428125 -3.548125 6.6428125 -5 8 C-4.7602129 11.10615338 -4.7602129 11.10615338 -4 14 C-5.0625 15.875 -5.0625 15.875 -7 17 C-10.0625 17.3125 -10.0625 17.3125 -13 17 C-13.66 16.34 -14.32 15.68 -15 15 C-14.34 15 -13.68 15 -13 15 C-12.91363281 14.41476563 -12.82726562 13.82953125 -12.73828125 13.2265625 C-11.79594239 10.38458816 -10.46457161 9.29297868 -8.1875 7.375 C-7.50042969 6.78460938 -6.81335938 6.19421875 -6.10546875 5.5859375 C-4.13394577 4.10089421 -2.24176008 3.01760794 0 2 C0 1.34 0 0.68 0 0 Z " fill="#D90A87" transform="translate(88,210)"/>
<path d="M0 0 C5.61 0.33 11.22 0.66 17 1 C17 1.33 17 1.66 17 2 C9.08 2.495 9.08 2.495 1 3 C1 4.32 1 5.64 1 7 C8.26 7.66 15.52 8.32 23 9 C23 9.99 23 10.98 23 12 C21.02 12.99 21.02 12.99 19 14 C19.33 12.68 19.66 11.36 20 10 C19.10692139 10.02356567 19.10692139 10.02356567 18.19580078 10.04760742 C15.50562997 10.10985801 12.81561043 10.14895783 10.125 10.1875 C9.18785156 10.21263672 8.25070313 10.23777344 7.28515625 10.26367188 C6.38925781 10.27333984 5.49335937 10.28300781 4.5703125 10.29296875 C3.74289551 10.3086792 2.91547852 10.32438965 2.06298828 10.34057617 C1.38220215 10.22818604 0.70141602 10.1157959 0 10 C-2.1519437 6.77208445 -2.20086443 5.71599191 -2 2 C-1.34 2 -0.68 2 0 2 C0 1.34 0 0.68 0 0 Z " fill="#480A76" transform="translate(85,183)"/>
<path d="M0 0 C0.268125 0.598125 0.53625 1.19625 0.8125 1.8125 C2.07973114 4.14687316 2.89264196 5.38320273 5 7 C8.18784813 7.69240442 8.18784813 7.69240442 11.85546875 7.94921875 C12.84792351 8.04273369 12.84792351 8.04273369 13.86042786 8.13813782 C15.96852705 8.33386555 18.07772055 8.51090418 20.1875 8.6875 C21.61925249 8.81712968 23.05089548 8.947975 24.48242188 9.08007812 C27.98712165 9.40082091 31.49304352 9.70482721 35 10 C35 10.33 35 10.66 35 11 C24.605 11.495 24.605 11.495 14 12 C13.67 12.66 13.34 13.32 13 14 C11.68 13.67 10.36 13.34 9 13 C9.33 11.68 9.66 10.36 10 9 C9.0925 9.0825 8.185 9.165 7.25 9.25 C4 9 4 9 1.625 7.3125 C-0.27258004 4.61209763 -0.35882213 3.22939919 0 0 Z M8 14 C10 15 10 15 10 15 Z " fill="#0A1F70" transform="translate(66,104)"/>
<path d="M0 0 C3.5 0.75 3.5 0.75 6.5 2.75 C5.860625 2.9975 5.22125 3.245 4.5625 3.5 C2.31258459 4.56562433 2.31258459 4.56562433 1.75 6.875 C1.6675 7.49375 1.585 8.1125 1.5 8.75 C-1.84019306 8.15353695 -4.00470633 7.06705841 -6.5 4.75 C-6.5 3.76 -6.5 2.77 -6.5 1.75 C-3.5 -0.25 -3.5 -0.25 0 0 Z " fill="#12187A" transform="translate(73.5,216.25)"/>
<path d="M0 0 C-0.53109375 0.24234375 -1.0621875 0.4846875 -1.609375 0.734375 C-2.66898438 1.23710937 -2.66898438 1.23710937 -3.75 1.75 C-4.44609375 2.07484375 -5.1421875 2.3996875 -5.859375 2.734375 C-8.1320051 3.92558605 -8.1320051 3.92558605 -9.84375 6.125 C-12.84207151 8.7322361 -14.84530226 8.40618791 -18.75 8.25 C-19.92046875 8.21390625 -21.0909375 8.1778125 -22.296875 8.140625 C-23.18890625 8.09421875 -24.0809375 8.0478125 -25 8 C-22.26380497 5.77718133 -19.87876482 4.42462582 -16.5234375 3.359375 C-15.27046875 2.96105469 -15.27046875 2.96105469 -13.9921875 2.5546875 C-13.12851563 2.28914063 -12.26484375 2.02359375 -11.375 1.75 C-10.06789063 1.32847656 -10.06789063 1.32847656 -8.734375 0.8984375 C-2.25514881 -1.1275744 -2.25514881 -1.1275744 0 0 Z " fill="#0A2175" transform="translate(121,23)"/>
<path d="M0 0 C2.83339965 -0.02724423 5.66653117 -0.04695589 8.5 -0.0625 C9.29148437 -0.07087891 10.08296875 -0.07925781 10.8984375 -0.08789062 C16.02761717 -0.10891185 20.92336106 0.26062713 26 1 C26 1.33 26 1.66 26 2 C17.75 2 9.5 2 1 2 C1.99 3.32 2.98 4.64 4 6 C2.35 5.67 0.7 5.34 -1 5 C-0.67 3.35 -0.34 1.7 0 0 Z " fill="#C61591" transform="translate(86,185)"/>
<path d="M0 0 C5.12583611 -0.10251672 9.94997778 -0.03590199 15 1 C12 4 9 7 6 10 C5.34 9.67 4.68 9.34 4 9 C4 8.34 4 7.68 4 7 C4.66 7 5.32 7 6 7 C6.33 5.02 6.66 3.04 7 1 C4.69 1 2.38 1 0 1 C0 0.67 0 0.34 0 0 Z " fill="#0C1F70" transform="translate(103,115)"/>
<path d="M0 0 C2.64 0.66 5.28 1.32 8 2 C7.01 2.33 6.02 2.66 5 3 C7.12741392 7.70270446 9.62060825 11.16393369 13 15 C12.34 15.66 11.68 16.32 11 17 C9.16291774 14.35675132 7.33097086 11.70998489 5.5 9.0625 C4.97535156 8.30775391 4.45070313 7.55300781 3.91015625 6.77539062 C3.41386719 6.05673828 2.91757812 5.33808594 2.40625 4.59765625 C1.94541016 3.93258057 1.48457031 3.26750488 1.00976562 2.58227539 C0 1 0 1 0 0 Z " fill="#152769" transform="translate(42,190)"/>
<path d="M0 0 C0 1.98 0 3.96 0 6 C-0.99 5.67 -1.98 5.34 -3 5 C-7.38799735 7.53528736 -11.16574539 10.71349605 -15 14 C-15.66 13.67 -16.32 13.34 -17 13 C-14.54862627 10.82535122 -12.08780163 8.66169267 -9.625 6.5 C-8.92632812 5.87996094 -8.22765625 5.25992188 -7.5078125 4.62109375 C-6.8375 4.03457031 -6.1671875 3.44804687 -5.4765625 2.84375 C-4.549646 2.02680664 -4.549646 2.02680664 -3.60400391 1.19335938 C-2 0 -2 0 0 0 Z " fill="#0E2170" transform="translate(126,127)"/>
<path d="M0 0 C2.70482125 2.70482125 3.5076736 5.82543681 4.6875 9.375 C5.04424805 10.38433594 5.04424805 10.38433594 5.40820312 11.4140625 C7.46407193 17.53946634 7.46407193 17.53946634 6 21 C3.72297826 17.58446739 3.28175788 14.92969971 2.5625 10.9609375 C2.376875 10.31382813 2.19125 9.66671875 2 9 C1.34 8.67 0.68 8.34 0 8 C-1.27536232 2.55072464 -1.27536232 2.55072464 0 0 Z " fill="#0F216D" transform="translate(259,89)"/>
<path d="M0 0 C0 2 0 2 -1.5 3.625 C-1.995 4.07875 -2.49 4.5325 -3 5 C-2.360625 5.12375 -1.72125 5.2475 -1.0625 5.375 C-0.381875 5.58125 0.29875 5.7875 1 6 C1.33 6.66 1.66 7.32 2 8 C-3.06998019 7.34580901 -7.41990777 5.1453591 -12 3 C-11.40445313 2.85691406 -10.80890625 2.71382812 -10.1953125 2.56640625 C-8.39942791 2.10305524 -6.63097521 1.53453157 -4.875 0.9375 C-2 0 -2 0 0 0 Z " fill="#081E72" transform="translate(103,234)"/>
<path d="M0 0 C4.95 0 9.9 0 15 0 C15.33 1.32 15.66 2.64 16 4 C14.6875 5.75 14.6875 5.75 13 7 C12.34 7 11.68 7 11 7 C10.67 7.99 10.34 8.98 10 10 C7.9375 10.6875 7.9375 10.6875 6 11 C6 10.34 6 9.68 6 9 C6.66 9 7.32 9 8 9 C8 8.34 8 7.68 8 7 C9.98075027 5.63823419 11.98079663 4.30406884 14 3 C14 2.67 14 2.34 14 2 C7.07 1.505 7.07 1.505 0 1 C0 0.67 0 0.34 0 0 Z " fill="#CA118A" transform="translate(94,191)"/>
<path d="M0 0 C0.66 0 1.32 0 2 0 C3.125 5.75 3.125 5.75 2 8 C-1.87132028 7.42647107 -4.08172796 5.51295648 -7 3 C-5.5459375 2.5359375 -5.5459375 2.5359375 -4.0625 2.0625 C-1.15934208 1.30476658 -1.15934208 1.30476658 0 0 Z " fill="#2B1673" transform="translate(83,224)"/>
<path d="M0 0 C4.44006916 3.61783413 6.98488028 8.71836201 9 14 C8.67 14.66 8.34 15.32 8 16 C7.67 15.01 7.34 14.02 7 13 C6.34 13 5.68 13 5 13 C5 12.34 5 11.68 5 11 C4.01 11.33 3.02 11.66 2 12 C2.04125 10.948125 2.0825 9.89625 2.125 8.8125 C2.00852125 5.25989827 1.52791932 3.15133359 0 0 Z " fill="#0C216C" transform="translate(250,73)"/>
<path d="M0 0 C2.25525345 1.07335592 4.50375548 2.15807558 6.75 3.25 C7.38421875 3.55035156 8.0184375 3.85070313 8.671875 4.16015625 C12.41687422 5.99364545 15.24803883 7.85887261 18 11 C5.48091603 7.03053435 5.48091603 7.03053435 2 3 C1.34 2.67 0.68 2.34 0 2 C0 1.34 0 0.68 0 0 Z " fill="#142770" transform="translate(200,30)"/>
<path d="M0 0 C4.51468847 3.2834098 4.70884528 9.36953358 5.625 14.5 C5.74875 15.325 5.8725 16.15 6 17 C5.34 17 4.68 17 4 17 C3.32635339 14.91891315 2.66133202 12.8350329 2 10.75 C1.62875 9.58984375 1.2575 8.4296875 0.875 7.234375 C0 4 0 4 0 0 Z " fill="#0F1F6A" transform="translate(30,157)"/>
<path d="M0 0 C1 2 1 2 0.4375 3.9375 C-1.5553522 6.79680968 -3.8434703 7.61112693 -7 9 C-7.78375 9.391875 -8.5675 9.78375 -9.375 10.1875 C-9.91125 10.455625 -10.4475 10.72375 -11 11 C-7.6381774 6.74828319 -4.25171681 3.3618226 0 0 Z " fill="#0C216C" transform="translate(106,142)"/>
<path d="M0 0 C1.32830615 3.98491845 0.23204404 5.40048548 -1.4375 9.1875 C-1.91058594 10.27417969 -2.38367188 11.36085937 -2.87109375 12.48046875 C-3.42990234 13.72763672 -3.42990234 13.72763672 -4 15 C-4.33 15 -4.66 15 -5 15 C-5 13.35 -5 11.7 -5 10 C-4.34 10 -3.68 10 -3 10 C-3.061875 8.906875 -3.12375 7.81375 -3.1875 6.6875 C-3 3 -3 3 -1.5 1.0625 C-1.005 0.711875 -0.51 0.36125 0 0 Z " fill="#122774" transform="translate(262,170)"/>
<path d="M0 0 C0.99 0.33 1.98 0.66 3 1 C-0.96 4.465 -0.96 4.465 -5 8 C-5.66 7.67 -6.32 7.34 -7 7 C-6.34 5.02 -5.68 3.04 -5 1 C-3.35 1.33 -1.7 1.66 0 2 C0 1.34 0 0.68 0 0 Z " fill="#091E6E" transform="translate(71,153)"/>
<path d="M0 0 C0.66 0 1.32 0 2 0 C1.88541307 1.43836751 1.75790884 2.87570966 1.625 4.3125 C1.55539063 5.11300781 1.48578125 5.91351563 1.4140625 6.73828125 C1 9 1 9 -1 12 C-1.66 12 -2.32 12 -3 12 C-2.49202991 7.6822542 -1.80317221 3.96697886 0 0 Z " fill="#172876" transform="translate(35,93)"/>
<path d="M0 0 C4.85967024 2.50346649 8.27856704 6.08552441 12 10 C7.94654898 10 6.1784671 8.41839888 3 6 C2.67 5.01 2.34 4.02 2 3 C1.34 2.67 0.68 2.34 0 2 C0 1.34 0 0.68 0 0 Z " fill="#0C1E68" transform="translate(224,45)"/>
<path d="M0 0 C1.32 0.33 2.64 0.66 4 1 C2.02 3.31 0.04 5.62 -2 8 C-2.33 7.01 -2.66 6.02 -3 5 C-2.34 5 -1.68 5 -1 5 C-1.33 4.01 -1.66 3.02 -2 2 C-1.34 1.34 -0.68 0.68 0 0 Z " fill="#281177" transform="translate(93,202)"/>
<path d="M0 0 C0.99 0.33 1.98 0.66 3 1 C-0.96 4.465 -0.96 4.465 -5 8 C-5.33 7.34 -5.66 6.68 -6 6 C-4.5625 3.375 -4.5625 3.375 -3 1 C-2.01 1.33 -1.02 1.66 0 2 C0 1.34 0 0.68 0 0 Z " fill="#091D6E" transform="translate(80,145)"/>
<path d="M0 0 C0.66 0.33 1.32 0.66 2 1 C1.67 1.99 1.34 2.98 1 4 C2.65 4 4.3 4 6 4 C5.67 4.66 5.34 5.32 5 6 C2.125 6.125 2.125 6.125 -1 6 C-1.66 5.34 -2.32 4.68 -3 4 C-2.34 4 -1.68 4 -1 4 C-0.67 2.68 -0.34 1.36 0 0 Z " fill="#C21F90" transform="translate(76,221)"/>
<path d="M0 0 C0.33 0.99 0.66 1.98 1 3 C0.01 3 -0.98 3 -2 3 C-2 3.66 -2 4.32 -2 5 C-3.32 4.67 -4.64 4.34 -6 4 C-6.33 4.66 -6.66 5.32 -7 6 C-7 5.01 -7 4.02 -7 3 C-6.34 3 -5.68 3 -5 3 C-5 2.34 -5 1.68 -5 1 C-3.35 0.67 -1.7 0.34 0 0 Z " fill="#FA0383" transform="translate(104,202)"/>
<path d="M0 0 C2.475 0.495 2.475 0.495 5 1 C5 1.66 5 2.32 5 3 C5.66 3.33 6.32 3.66 7 4 C5.68 4.99 4.36 5.98 3 7 C2.01 4.69 1.02 2.38 0 0 Z " fill="#061A74" transform="translate(81,138)"/>
<path d="M0 0 C1.98 1.65 3.96 3.3 6 5 C4 6 2 7 0 8 C0 5.36 0 2.72 0 0 Z " fill="#071B6E" transform="translate(236,56)"/>
<path d="M0 0 C0.66 0.33 1.32 0.66 2 1 C0.12050295 4.57104439 -1.17053157 6.54744301 -5 8 C-3.8141763 4.62496331 -2.72426311 2.35277269 0 0 Z " fill="#102271" transform="translate(51,66)"/>
<path d="M0 0 C2.64 0.66 5.28 1.32 8 2 C7.01 2.33 6.02 2.66 5 3 C5 3.66 5 4.32 5 5 C3.0625 4.1875 3.0625 4.1875 1 3 C0.67 2.01 0.34 1.02 0 0 Z " fill="#1F3075" transform="translate(42,190)"/>
<path d="M0 0 C2.31 0 4.62 0 7 0 C6.67 1.65 6.34 3.3 6 5 C5.67 4.34 5.34 3.68 5 3 C4.01 3 3.02 3 2 3 C2 2.34 2 1.68 2 1 C1.34 0.67 0.68 0.34 0 0 Z " fill="#11137A" transform="translate(98,193)"/>
<path d="M0 0 C0.66 0.33 1.32 0.66 2 1 C1.01 2.485 1.01 2.485 0 4 C-3.625 4.1875 -3.625 4.1875 -7 4 C-4.61426621 2.10786631 -2.92824652 0.97608217 0 0 Z " fill="#1C2F78" transform="translate(103,27)"/>
<path d="M0 0 C1.32 0 2.64 0 4 0 C2.95125002 2.62187494 2.35068687 3.79371361 -0.125 5.25 C-0.74375 5.4975 -1.3625 5.745 -2 6 C-2.33 5.34 -2.66 4.68 -3 4 C-2.01 4 -1.02 4 0 4 C0 2.68 0 1.36 0 0 Z " fill="#0B1E71" transform="translate(59,161)"/>
<path d="M0 0 C0.66 0.66 1.32 1.32 2 2 C1.7578125 4.1640625 1.7578125 4.1640625 1.125 6.625 C0.92132813 7.44226563 0.71765625 8.25953125 0.5078125 9.1015625 C0.34023438 9.72804687 0.17265625 10.35453125 0 11 C-0.33 11 -0.66 11 -1 11 C-1.02688151 9.35425434 -1.04634123 7.70838587 -1.0625 6.0625 C-1.07410156 5.14597656 -1.08570313 4.22945312 -1.09765625 3.28515625 C-1 1 -1 1 0 0 Z " fill="#142372" transform="translate(266,153)"/>
</svg>
